<mxfile host="app.diagrams.net" modified="2024-02-24T09:26:22.727Z" agent="Mozilla/5.0 (X11; Linux x86_64; rv:109.0) Gecko/20100101 Firefox/115.0" version="23.1.6" etag="SVhnfc_UCrQGzKmgXnsS" type="github">
  <diagram name="Page-1" id="oh9DHqXxhJ-BI5kEJEt9">
    <mxGraphModel>
      <root>
        <mxCell id="0" />
        <mxCell id="1" parent="0" />
      </root>
    </mxGraphModel>
  </diagram>
</mxfile>
